<?xml version="1.0" standalone="no"?>
<!DOCTYPE svg PUBLIC "-//W3C//DTD SVG 20010904//EN"
 "http://www.w3.org/TR/2001/REC-SVG-20010904/DTD/svg10.dtd">
<svg version="1.0" xmlns="http://www.w3.org/2000/svg"
 width="662.000000pt" height="662.000000pt" viewBox="0 0 662.000000 662.000000"
 preserveAspectRatio="xMidYMid meet">
<metadata>
Created by potrace 1.12, written by Peter Selinger 2001-2015
</metadata>
<g transform="translate(-40.000000,700.000000) scale(0.100000,-0.100000)"
fill="#000000" stroke="none">
<path d="M400 6300 l0 -700 700 0 700 0 0 700 0 700 -700 0 -700 0 0 -700z
m1200 0 l0 -500 -500 0 -500 0 0 500 0 500 500 0 500 0 0 -500z"/>
<path d="M800 6300 l0 -300 300 0 300 0 0 300 0 300 -300 0 -300 0 0 -300z"/>
<path d="M2000 6700 l0 -300 100 0 100 0 0 -100 0 -100 100 0 100 0 0 -300 0
-300 -100 0 -100 0 0 200 0 200 -100 0 -100 0 0 -400 0 -400 200 0 200 0 0
-100 0 -100 100 0 100 0 0 -200 0 -200 -100 0 -100 0 0 -100 0 -100 -200 0
-200 0 0 -300 0 -300 300 0 300 0 0 -100 0 -100 99 0 99 0 5 293 c6 369 6 581
0 875 l-5 232 201 0 201 0 0 -100 0 -100 -100 0 -100 0 0 -100 0 -100 35 0
c33 0 35 -2 35 -35 0 -32 2 -35 30 -35 27 0 30 -3 30 -30 l0 -30 135 0 135 0
0 -69 0 -70 33 -3 c27 -2 33 -8 35 -30 3 -27 5 -28 68 -28 l64 0 0 -70 0 -70
233 -2 232 -3 3 -27 c3 -24 8 -28 33 -28 26 0 29 3 29 30 l0 30 368 -2 367 -3
3 -27 c3 -23 8 -28 32 -28 l29 0 3 98 3 97 33 3 c28 3 32 7 32 33 0 28 2 30
33 27 27 -2 33 -8 35 -30 3 -24 8 -28 33 -28 26 0 29 3 29 30 0 28 3 30 35 30
l35 0 0 70 0 70 165 0 165 0 0 -270 0 -270 -30 0 c-27 0 -30 -3 -30 -30 0 -27
3 -30 30 -30 28 0 30 -3 30 -35 l0 -35 70 0 70 0 0 -35 c0 -32 2 -35 30 -35
28 0 30 3 30 35 0 32 -2 35 -30 35 l-29 0 -3 163 c-2 89 -2 195 0 235 l3 72
39 0 c38 0 40 2 40 30 0 28 -2 30 -40 30 l-39 0 -3 68 -3 67 -67 3 -68 3 0 64
0 65 35 0 35 0 0 100 0 100 -100 0 -100 0 0 -100 0 -100 -100 0 -100 0 0 100
0 100 -200 0 -200 0 0 100 0 100 200 0 200 0 0 100 0 100 100 0 100 0 0 -100
0 -100 200 0 200 0 0 -100 0 -100 100 0 100 0 0 100 0 100 -100 0 -100 0 0
100 0 100 100 0 100 0 0 100 0 100 -400 0 -400 0 0 100 0 100 100 0 100 0 0
200 0 200 -200 0 -200 0 0 100 0 100 200 0 200 0 0 400 0 400 -200 0 -200 0 0
-100 0 -100 -100 0 -100 0 0 100 0 100 -200 0 -200 0 0 -100 0 -100 100 0 100
0 0 -200 0 -200 -100 0 -100 0 0 -100 0 -100 -100 0 -100 0 0 -100 0 -100 200
0 200 0 0 -100 0 -100 -100 0 -100 0 0 -100 0 -100 100 0 100 0 0 -100 0 -100
-100 0 -100 0 0 -100 0 -100 -400 0 -400 0 0 200 0 200 100 0 100 0 0 -100 0
-100 200 0 200 0 0 200 0 200 -100 0 -100 0 0 300 0 300 100 0 100 0 0 100 0
100 -500 0 -500 0 0 -100 0 -100 300 0 300 0 0 -100 0 -100 -200 0 -200 0 0
-200 0 -200 -100 0 -100 0 0 -100 0 -100 100 0 100 0 0 -200 0 -200 -400 0
-400 0 0 100 0 100 -100 0 -100 0 0 100 0 100 100 0 100 0 0 200 0 200 100 0
100 0 0 -300 0 -300 100 0 100 0 0 400 0 400 -300 0 -300 0 0 100 0 100 100 0
100 0 0 100 0 100 200 0 200 0 0 100 0 100 -200 0 -200 0 0 100 0 100 -100 0
-100 0 0 -200 0 -200 -100 0 -100 0 0 200 0 200 -100 0 -100 0 0 -300z m3200
0 l0 -100 -100 0 -100 0 0 100 0 100 100 0 100 0 0 -100z m-400 -500 l0 -200
100 0 100 0 0 -100 0 -100 100 0 100 0 0 -100 0 -100 -100 0 -100 0 0 100 0
100 -100 0 -100 0 0 -100 0 -100 -100 0 -100 0 0 100 0 100 100 0 100 0 0 100
0 100 -100 0 -100 0 0 200 0 200 100 0 100 0 0 -200z m-1200 -500 l0 -100
-100 0 -100 0 0 100 0 100 100 0 100 0 0 -100z m400 0 l0 -100 -100 0 -100 0
0 100 0 100 100 0 100 0 0 -100z m800 -400 l0 -100 -100 0 -100 0 0 -100 0
-100 -100 0 -100 0 0 100 0 100 100 0 100 0 0 100 0 100 100 0 100 0 0 -100z
m-1200 -200 l0 -100 200 0 200 0 0 -100 0 -100 200 0 200 0 0 -100 0 -100 100
0 100 0 0 -105 0 -105 100 0 100 0 0 105 0 106 165 -3 165 -2 0 -63 0 -63 -65
0 -65 0 0 -70 0 -70 -65 0 -65 0 0 -30 0 -30 -370 0 -370 0 0 30 c0 27 -3 30
-30 30 -27 0 -30 -3 -30 -30 l0 -30 -170 0 -170 0 0 30 c0 27 -3 30 -30 30
-27 0 -30 -3 -30 -30 0 -28 -3 -30 -35 -30 -32 0 -35 2 -35 30 0 28 -3 30 -35
30 l-35 0 0 100 0 100 -30 0 c-27 0 -30 -3 -30 -30 0 -28 -3 -30 -35 -30 l-35
0 0 66 0 67 63 -8 c34 -4 69 -7 77 -6 8 1 115 4 238 7 l222 6 0 99 0 99 -300
0 -300 0 0 200 0 200 100 0 100 0 0 -100z m-1000 -900 l0 -200 -200 0 -200 0
0 100 0 100 100 0 100 0 0 100 0 100 100 0 100 0 0 -200z"/>
<path d="M3400 6900 l0 -100 100 0 100 0 0 100 0 100 -100 0 -100 0 0 -100z"/>
<path d="M4000 6900 l0 -100 100 0 100 0 0 100 0 100 -100 0 -100 0 0 -100z"/>
<path d="M5600 6300 l0 -700 710 0 710 0 0 700 0 700 -710 0 -710 0 0 -700z
m1200 0 l0 -500 -500 0 -500 0 0 500 0 500 500 0 500 0 0 -500z"/>
<path d="M6000 6300 l0 -300 300 0 300 0 0 300 0 300 -300 0 -300 0 0 -300z"/>
<path d="M800 5300 l0 -100 200 0 200 0 0 -100 0 -100 200 0 200 0 0 -100 0
-100 100 0 100 0 0 -100 0 -100 -200 0 -200 0 0 100 0 100 -100 0 -100 0 0
-100 0 -100 -100 0 -100 0 0 200 0 200 -200 0 -200 0 0 100 0 100 -100 0 -100
0 0 -700 0 -700 200 0 200 0 0 100 0 100 200 0 200 0 0 -100 0 -100 -100 0
-100 0 0 -200 0 -200 100 0 100 0 0 -100 0 -100 100 0 100 0 0 -100 0 -100
-100 0 -100 0 0 -100 0 -100 400 0 400 0 0 -200 0 -200 304 0 304 0 4 63 c1
34 2 79 0 100 l-3 37 -205 0 -204 0 0 300 0 300 204 0 204 0 4 63 c1 34 2 79
0 100 l-3 37 -205 0 -204 0 0 -100 0 -100 -100 0 -100 0 0 100 0 100 -400 0
-400 0 0 100 0 100 300 0 300 0 0 100 0 100 -100 0 -100 0 0 100 0 100 100 0
100 0 0 100 0 100 -100 0 -100 0 0 -100 0 -100 -100 0 -100 0 0 100 0 100
-200 0 -200 0 0 100 0 100 400 0 400 0 0 100 0 100 200 0 200 0 0 100 0 100
-200 0 -200 0 0 100 0 100 -100 0 -100 0 0 100 0 100 100 0 100 0 0 100 0 100
-100 0 -100 0 0 -100 0 -100 -100 0 -100 0 0 100 0 100 -300 0 -300 0 0 -100z
m0 -600 l0 -100 100 0 100 0 0 -100 0 -100 -100 0 -100 0 0 -200 0 -200 -100
0 -100 0 0 200 0 200 100 0 100 0 0 100 0 100 -100 0 -100 0 0 100 0 100 100
0 100 0 0 -100z m1000 -1600 l0 -100 -100 0 -100 0 0 100 0 100 100 0 100 0 0
-100z"/>
<path d="M6400 5300 l0 -100 -100 0 -100 0 0 -300 0 -300 -200 0 -200 0 0
-100 0 -100 200 0 200 0 0 -100 0 -100 -200 0 -200 0 0 -100 0 -100 100 0 100
0 0 -200 0 -200 100 0 100 0 0 100 0 100 200 0 200 0 0 -200 0 -200 -100 0
-100 0 0 -100 0 -100 -200 0 -200 0 0 100 0 100 -65 0 -65 0 0 135 0 135 40 0
c38 0 40 2 40 30 l0 30 -75 0 -75 0 0 -165 0 -165 35 0 c33 0 35 -2 35 -35 0
-32 2 -35 30 -35 27 0 30 -3 30 -30 0 -27 -3 -30 -30 -30 l-29 0 -3 -172 c-2
-95 -2 -217 0 -270 l3 -98 29 0 c27 0 30 -3 30 -30 0 -27 -3 -30 -30 -30 l-29
0 -3 -72 c-2 -40 -2 -117 0 -170 l3 -98 30 0 c26 0 29 -3 29 -30 0 -26 -3 -30
-29 -30 l-29 0 -4 -72 c-2 -40 -2 -101 0 -136 l3 -62 64 0 65 0 0 -300 0 -300
-300 0 -300 0 0 300 0 300 -100 0 -100 0 0 -100 0 -100 -200 0 -200 0 0 -100
0 -100 100 0 100 0 0 -100 0 -100 -300 0 -300 0 0 100 0 100 100 0 100 0 0
100 0 100 -100 0 -100 0 0 -100 0 -100 -100 0 -100 0 0 -100 0 -100 100 0 100
0 0 -100 0 -100 -100 0 -100 0 0 -100 0 -100 -200 0 -200 0 0 100 0 100 100 0
100 0 0 200 0 200 -100 0 -100 0 2 163 c1 89 5 146 8 127 5 -35 5 -35 63 -38
l57 -3 0 40 0 39 -65 7 c-63 7 -65 8 -65 36 l0 29 -100 0 -100 0 0 -200 0
-200 -100 0 -100 0 0 100 0 100 -100 0 -100 0 0 -100 0 -100 100 0 100 0 0
-100 0 -100 -200 0 -200 0 0 100 0 100 -300 0 -300 0 0 100 0 100 299 0 299 0
4 113 c1 61 1 181 0 265 l-4 152 -34 0 c-31 0 -34 -3 -34 -30 0 -27 -3 -30
-30 -30 -28 0 -30 -3 -30 -35 l0 -35 -135 0 -135 0 0 -100 0 -100 -100 0 -100
0 0 -100 0 -100 -100 0 -100 0 0 100 0 100 -100 0 -100 0 0 -100 0 -100 100 0
100 0 0 -100 0 -100 100 0 100 0 0 -100 0 -100 100 0 100 0 0 -100 0 -100
-100 0 -100 0 0 -200 0 -200 -100 0 -100 0 0 300 0 300 -100 0 -100 0 0 -300
0 -300 100 0 100 0 0 -100 0 -100 100 0 100 0 0 -105 0 -105 200 -1 c110 0
218 -1 240 -1 22 0 67 1 100 1 l60 1 0 105 0 105 100 0 100 0 0 -105 0 -105
200 0 200 0 0 205 0 205 -100 0 -100 0 0 100 0 100 200 0 200 0 0 -305 0 -305
100 0 100 0 0 105 0 105 100 0 100 0 0 100 0 100 100 0 100 0 0 -205 0 -205
100 0 100 0 0 205 0 205 100 0 100 0 0 -100 0 -100 100 0 100 0 0 -105 0 -105
100 -1 c55 0 118 -1 140 -1 22 0 67 1 100 1 l60 1 0 105 0 105 100 0 100 0 0
-105 0 -105 100 0 100 0 0 105 0 105 100 0 100 0 0 100 0 100 -100 0 -100 0 0
100 0 100 -100 0 -100 0 0 100 0 100 200 0 200 0 0 -100 0 -100 100 0 100 0 0
200 0 200 200 0 200 0 0 -100 0 -100 -100 0 -100 0 0 -100 0 -100 200 0 200 0
0 100 0 100 105 0 105 0 1 60 c0 33 1 78 1 100 0 22 -1 85 -1 140 l-1 100
-105 0 -105 0 0 100 0 100 105 0 105 0 0 100 0 100 -105 0 -105 0 0 100 0 100
-100 0 -100 0 0 100 0 100 100 0 100 0 0 100 0 100 105 0 104 0 3 163 c2 89 2
179 0 200 l-3 37 -105 0 -104 0 0 -200 0 -200 -100 0 -100 0 0 -100 0 -100
-100 0 -100 0 0 300 0 300 100 0 100 0 0 100 0 100 100 0 100 0 0 100 0 100
105 0 105 0 1 160 c0 88 1 178 1 200 0 22 -1 85 -1 140 l-1 100 -105 0 -105 0
0 100 0 100 105 0 105 0 0 100 0 100 -105 0 -105 0 0 100 0 100 105 0 105 0 0
100 0 100 -105 0 -105 0 0 100 0 100 103 0 104 0 6 137 c4 75 7 165 7 200 l0
63 -310 0 -310 0 0 -100z m400 -200 l0 -100 -100 0 -100 0 0 -100 0 -100 -100
0 -100 0 0 200 0 200 200 0 200 0 0 -100z m-200 -600 l0 -100 100 0 100 0 0
-100 0 -100 -100 0 -100 0 0 100 0 100 -200 0 -200 0 0 100 0 100 200 0 200 0
0 -100z m-400 -1900 l0 -200 -100 0 -100 0 0 200 0 200 100 0 100 0 0 -200z
m400 -500 l0 -100 100 0 100 0 0 -100 0 -100 -100 0 -100 0 0 -100 0 -100
-200 0 -200 0 0 100 0 100 100 0 100 0 0 100 0 100 -100 0 -100 0 0 100 0 100
200 0 200 0 0 -100z m-2800 -600 l0 -100 -100 0 -100 0 0 100 0 100 100 0 100
0 0 -100z m-800 -200 l0 -100 -100 0 -100 0 0 100 0 100 100 0 100 0 0 -100z
m2200 0 l0 -100 100 0 100 0 0 -300 0 -300 -200 0 -200 0 0 100 0 100 -100 0
-100 0 0 100 0 100 -100 0 -100 0 0 100 0 100 200 0 200 0 0 100 0 100 100 0
100 0 0 -100z m-1800 -200 l0 -100 -100 0 -100 0 0 -100 0 -100 -100 0 -100 0
0 100 0 100 100 0 100 0 0 100 0 100 100 0 100 0 0 -100z m-600 -400 l0 -100
-200 0 -200 0 0 100 0 100 200 0 200 0 0 -100z"/>
<path d="M5000 900 l0 -100 100 0 100 0 0 100 0 100 -100 0 -100 0 0 -100z"/>
<path d="M3000 4271 l0 -201 -65 0 -65 0 0 -172 c-1 -95 0 -246 0 -335 l1
-163 -36 0 -35 0 0 -536 0 -535 33 3 32 3 3 68 c3 67 3 67 32 67 27 0 30 3 30
30 0 27 -3 30 -30 30 l-30 0 0 70 0 70 30 0 c27 0 30 3 30 30 0 27 -3 30 -30
30 l-30 0 0 70 0 70 30 0 c27 0 30 3 30 30 0 27 -3 30 -30 30 l-30 0 0 70 0
70 30 0 c27 0 30 3 30 30 0 27 -3 30 -30 30 l-30 0 0 70 0 70 30 0 c27 0 30 3
30 30 0 27 -3 30 -30 30 -28 0 -30 3 -30 35 l0 35 65 0 65 0 0 -264 0 -265 33
-3 32 -3 3 -97 3 -98 29 0 c27 0 30 3 30 30 0 28 3 30 35 30 32 0 35 -2 35
-30 l0 -30 65 0 65 0 0 -70 0 -70 -30 0 c-27 0 -30 -3 -30 -30 0 -27 3 -30 30
-30 27 0 30 3 30 30 l0 31 68 -3 c65 -3 67 -4 70 -30 3 -24 8 -28 33 -28 26 0
29 4 29 30 l0 30 168 2 167 3 3 68 c3 67 3 67 32 67 27 0 30 3 30 30 0 29 0
29 68 32 l67 3 3 68 c3 67 3 67 32 67 l30 0 0 265 0 265 -30 0 c-29 0 -29 1
-32 63 l-3 62 -67 3 -68 3 0 34 c0 32 -3 35 -30 35 -29 0 -29 1 -32 63 l-3 62
-67 3 -68 3 0 -31 c0 -27 -3 -30 -29 -30 -25 0 -30 4 -33 28 l-3 27 -167 3
-168 2 0 -65 0 -65 270 0 270 0 0 -35 c0 -32 2 -35 30 -35 l30 0 0 -65 0 -65
70 0 69 0 0 -265 0 -264 -67 -3 -67 -3 -3 -67 c-3 -68 -3 -68 -32 -68 -27 0
-30 -3 -30 -30 l0 -30 -70 0 -70 0 0 30 c0 27 -3 30 -30 30 -27 0 -30 -3 -30
-30 l0 -30 -70 0 -70 0 0 30 c0 27 -3 30 -30 30 -27 0 -30 -3 -30 -30 l0 -30
-70 0 -70 0 0 30 0 30 -65 0 -65 0 0 70 0 70 -35 0 c-32 0 -35 2 -35 30 0 27
-3 30 -30 30 l-30 0 0 70 0 70 30 0 c27 0 30 3 30 30 0 27 -3 30 -29 30 l-30
0 -3 98 c-2 53 -2 114 0 135 l3 37 65 0 64 0 0 65 0 65 35 0 c32 0 35 -2 35
-30 0 -27 3 -30 30 -30 27 0 30 3 30 30 0 27 -3 30 -30 30 -28 0 -30 3 -30 35
0 33 -2 35 -35 35 -33 0 -35 -2 -35 -35 l0 -35 -65 0 -65 0 0 -65 0 -65 -35 0
-35 0 0 335 0 335 100 0 100 0 0 30 c0 28 3 30 35 30 32 0 35 -2 35 -30 0 -27
3 -30 30 -30 27 0 30 3 30 30 0 27 -3 30 -30 30 -29 0 -29 0 -32 68 l-3 67
-32 3 -33 3 0 -70 0 -71 -65 0 -65 0 0 70 0 70 30 0 c27 0 30 3 30 30 0 27 -3
30 -30 30 -29 0 -29 0 -32 68 l-3 67 -32 3 -33 3 0 -200z"/>
<path d="M2870 4300 c0 -27 3 -30 30 -30 27 0 30 3 30 30 0 27 -3 30 -30 30
-27 0 -30 -3 -30 -30z"/>
<path d="M5330 4300 c0 -27 -3 -30 -30 -30 l-30 0 0 -70 0 -70 30 0 c27 0 30
-3 30 -30 l0 -30 71 0 70 0 -3 28 c-3 26 -5 27 -70 30 l-68 3 0 69 0 70 71 0
70 0 -3 28 c-3 26 -5 27 -70 30 l-68 3 0 -31z"/>
<path d="M3470 4100 c0 -27 3 -30 30 -30 27 0 30 3 30 30 0 27 -3 30 -30 30
-27 0 -30 -3 -30 -30z"/>
<path d="M3070 3900 c0 -27 3 -30 30 -30 27 0 30 3 30 30 0 27 -3 30 -30 30
-27 0 -30 -3 -30 -30z"/>
<path d="M3270 3900 c0 -27 3 -30 30 -30 27 0 30 3 30 30 0 27 -3 30 -30 30
-27 0 -30 -3 -30 -30z"/>
<path d="M3670 3900 c0 -27 3 -30 30 -30 27 0 30 3 30 30 0 27 -3 30 -30 30
-27 0 -30 -3 -30 -30z"/>
<path d="M3870 3900 c0 -27 3 -30 30 -30 27 0 30 3 30 30 0 27 -3 30 -30 30
-27 0 -30 -3 -30 -30z"/>
<path d="M4670 3900 c0 -27 3 -30 30 -30 27 0 30 3 30 30 0 27 -3 30 -30 30
-27 0 -30 -3 -30 -30z"/>
<path d="M4870 3900 c0 -27 3 -30 30 -30 27 0 30 3 30 30 0 27 -3 30 -30 30
-27 0 -30 -3 -30 -30z"/>
<path d="M5070 3900 c0 -27 3 -30 30 -30 27 0 30 3 30 30 0 27 -3 30 -30 30
-27 0 -30 -3 -30 -30z"/>
<path d="M4270 3700 c0 -27 3 -30 30 -30 27 0 30 3 30 30 0 27 -3 30 -30 30
-27 0 -30 -3 -30 -30z"/>
<path d="M4930 3665 l0 -65 -65 0 -65 0 0 -35 0 -35 -65 0 -65 0 0 -65 0 -65
-35 0 -35 0 0 -265 0 -265 35 0 35 0 0 -100 0 -100 -35 0 c-32 0 -35 2 -35 30
0 28 -3 30 -35 30 -32 0 -35 -2 -35 -30 0 -27 -3 -30 -29 -30 -25 0 -30 4 -33
28 l-3 27 -167 3 -168 2 0 -30 c0 -27 -3 -30 -30 -30 l-30 0 0 -70 0 -70 30 0
c27 0 30 -3 30 -30 0 -27 -3 -30 -30 -30 -28 0 -30 -3 -30 -35 0 -32 2 -35 30
-35 28 0 30 -3 30 -35 0 -32 -2 -35 -30 -35 -27 0 -30 -3 -30 -30 0 -27 3 -30
30 -30 28 0 30 -3 30 -35 l0 -35 235 0 235 0 0 100 0 100 35 0 c33 0 35 2 35
35 0 32 2 35 30 35 27 0 30 3 30 30 0 27 -3 30 -30 30 l-30 0 0 70 0 70 30 0
c27 0 30 3 30 30 0 28 3 30 35 30 32 0 35 -2 35 -30 l0 -30 65 0 65 0 0 -70 0
-70 -30 0 c-27 0 -30 -3 -30 -30 0 -27 3 -30 30 -30 27 0 30 3 30 30 l0 30
268 2 267 3 0 65 0 65 -67 3 c-68 3 -68 3 -68 32 0 27 -3 30 -30 30 -27 0 -30
-3 -30 -30 l0 -30 -170 0 -170 0 0 30 0 30 -65 0 -65 0 0 70 0 70 -64 0 c-63
0 -65 1 -68 28 -2 15 -2 60 0 100 l4 72 29 0 c26 0 29 4 29 30 0 27 -3 30 -29
30 l-30 0 -3 98 c-2 53 -2 114 0 135 l3 37 65 0 64 0 0 65 0 65 65 0 65 0 0
35 0 35 270 0 270 0 0 -35 c0 -32 2 -35 30 -35 l30 0 0 -65 0 -65 71 0 71 0
-2 -37 c-1 -21 -2 -82 -1 -135 l1 -98 30 0 30 0 0 135 0 135 -30 0 c-28 0 -30
3 -30 35 0 32 2 35 30 35 27 0 30 3 30 30 l0 30 -100 0 -100 0 0 35 c0 32 -2
35 -30 35 -29 0 -29 1 -32 63 l-3 62 -67 3 -68 3 0 -31 c0 -27 -3 -30 -29 -30
-25 0 -30 4 -33 28 -3 26 -5 27 -70 30 l-68 3 0 -31 c0 -27 -3 -30 -29 -30
-25 0 -30 4 -33 28 -3 26 -5 27 -70 30 l-68 3 0 -66z m-600 -1165 c0 -27 -3
-30 -30 -30 -27 0 -30 3 -30 30 0 27 3 30 30 30 27 0 30 -3 30 -30z m200 0 c0
-27 -3 -30 -30 -30 -27 0 -30 3 -30 30 0 27 3 30 30 30 27 0 30 -3 30 -30z
m-62 -132 l-3 -33 -97 -3 -98 -3 0 36 0 35 101 0 100 0 -3 -32z"/>
<path d="M400 3500 l0 -100 100 0 100 0 0 100 0 100 -100 0 -100 0 0 -100z"/>
<path d="M3670 3500 c0 -27 3 -30 30 -30 27 0 30 3 30 30 0 27 -3 30 -30 30
-27 0 -30 -3 -30 -30z"/>
<path d="M4270 3500 c0 -27 3 -30 30 -30 27 0 30 3 30 30 0 27 -3 30 -30 30
-27 0 -30 -3 -30 -30z"/>
<path d="M4470 3500 c0 -27 3 -30 30 -30 27 0 30 3 30 30 0 27 -3 30 -30 30
-27 0 -30 -3 -30 -30z"/>
<path d="M5070 3500 c0 -27 3 -30 30 -30 27 0 30 3 30 30 0 27 -3 30 -30 30
-27 0 -30 -3 -30 -30z"/>
<path d="M5270 3500 c0 -27 3 -30 30 -30 27 0 30 3 30 30 0 27 -3 30 -30 30
-27 0 -30 -3 -30 -30z"/>
<path d="M3400 3335 l0 -65 -35 0 c-32 0 -35 2 -35 30 0 27 -3 30 -30 30 -27
0 -30 -3 -30 -30 0 -27 3 -30 30 -30 l30 0 0 -70 0 -70 -30 0 c-27 0 -30 -3
-30 -30 0 -27 3 -30 30 -30 28 0 30 -3 30 -35 0 -33 2 -35 35 -35 l35 0 0 -65
0 -65 165 0 165 0 0 65 0 65 70 0 70 0 0 35 c0 32 2 35 30 35 27 0 30 3 30 30
0 27 -3 30 -30 30 -29 0 -29 0 -32 68 l-3 67 -67 3 -68 3 0 64 0 65 -165 0
-165 0 0 -65z m330 -165 l0 -100 -100 0 -100 0 0 93 c0 52 3 97 7 100 3 4 48
7 100 7 l93 0 0 -100z"/>
<path d="M5000 3336 l0 -65 -32 -3 -33 -3 -3 -67 c-3 -68 -3 -68 -32 -68 -27
0 -30 -3 -30 -30 0 -27 3 -30 30 -30 28 0 30 -3 30 -35 0 -33 2 -35 35 -35
l35 0 0 -65 0 -65 35 0 c32 0 35 2 35 30 0 27 3 30 30 30 27 0 30 -3 30 -30
l0 -30 100 0 100 0 0 65 0 65 70 0 70 0 0 35 c0 32 2 35 30 35 27 0 30 3 30
30 0 27 -3 30 -30 30 -29 0 -29 0 -32 68 l-3 67 -65 0 -65 0 -3 -67 c-3 -68
-3 -68 -32 -68 -27 0 -30 -3 -30 -30 l0 -30 -70 0 -70 0 0 100 0 100 70 0 70
0 0 30 c0 27 3 30 30 30 28 0 30 3 30 35 l0 35 -165 0 -165 0 0 -64z m130 -36
c0 -27 -3 -30 -30 -30 -27 0 -30 3 -30 30 0 27 3 30 30 30 27 0 30 -3 30 -30z"/>
<path d="M2670 3300 c0 -27 3 -30 30 -30 27 0 30 3 30 30 0 27 -3 30 -30 30
-27 0 -30 -3 -30 -30z"/>
<path d="M4470 3300 c0 -27 3 -30 30 -30 27 0 30 3 30 30 0 27 -3 30 -30 30
-27 0 -30 -3 -30 -30z"/>
<path d="M600 3100 l0 -100 -100 0 -100 0 0 -500 0 -500 100 0 100 0 0 400 0
400 200 0 200 0 0 200 0 200 -200 0 -200 0 0 -100z"/>
<path d="M2670 3100 c0 -27 3 -30 30 -30 27 0 30 3 30 30 0 27 -3 30 -30 30
-27 0 -30 -3 -30 -30z"/>
<path d="M4270 3100 c0 -27 3 -30 30 -30 27 0 30 3 30 30 0 27 -3 30 -30 30
-27 0 -30 -3 -30 -30z"/>
<path d="M4470 3100 c0 -27 3 -30 30 -30 27 0 30 3 30 30 0 27 -3 30 -30 30
-27 0 -30 -3 -30 -30z"/>
<path d="M5670 3035 c0 -32 2 -35 30 -35 28 0 30 3 30 35 0 32 -2 35 -30 35
-28 0 -30 -3 -30 -35z"/>
<path d="M2400 2900 l0 -100 104 0 104 0 4 63 c1 34 2 79 0 100 l-3 37 -105 0
-104 0 0 -100z"/>
<path d="M4270 2900 c0 -27 3 -30 30 -30 27 0 30 3 30 30 0 27 -3 30 -30 30
-27 0 -30 -3 -30 -30z"/>
<path d="M4470 2900 c0 -27 3 -30 30 -30 27 0 30 3 30 30 0 27 -3 30 -30 30
-27 0 -30 -3 -30 -30z"/>
<path d="M4870 2900 c0 -27 3 -30 30 -30 27 0 30 3 30 30 0 27 -3 30 -30 30
-27 0 -30 -3 -30 -30z"/>
<path d="M5470 2900 c0 -27 3 -30 30 -30 l30 0 0 -70 0 -70 70 0 70 0 0 -30
c0 -27 3 -30 30 -30 27 0 30 3 30 30 0 27 -3 30 -30 30 l-29 0 -3 98 -3 97
-97 3 -98 3 0 -31z"/>
<path d="M800 2300 l0 -300 100 0 100 0 0 100 0 100 300 0 300 0 0 -100 0
-100 100 0 100 0 0 100 0 100 -100 0 -100 0 0 100 0 100 100 0 100 0 0 100 0
100 -200 0 -200 0 0 -100 0 -100 -200 0 -200 0 0 100 0 100 -100 0 -100 0 0
-300z"/>
<path d="M2670 2500 c0 -27 3 -30 30 -30 27 0 30 3 30 30 0 27 -3 30 -30 30
-27 0 -30 -3 -30 -30z"/>
<path d="M3270 2300 c0 -27 3 -30 30 -30 27 0 30 3 30 30 0 27 -3 30 -30 30
-27 0 -30 -3 -30 -30z"/>
<path d="M3670 2300 c0 -27 3 -30 30 -30 27 0 30 3 30 30 0 27 -3 30 -30 30
-27 0 -30 -3 -30 -30z"/>
<path d="M4670 2300 c0 -27 3 -30 30 -30 27 0 30 3 30 30 0 27 -3 30 -30 30
-27 0 -30 -3 -30 -30z"/>
<path d="M5070 2300 c0 -27 3 -30 30 -30 27 0 30 3 30 30 0 27 -3 30 -30 30
-27 0 -30 -3 -30 -30z"/>
<path d="M3070 2090 c0 -38 2 -40 30 -40 26 0 30 -4 31 -27 l1 -28 7 30 c5 23
13 32 36 37 27 6 27 7 -7 5 -37 -3 -38 -2 -38 30 0 30 -3 33 -30 33 -28 0 -30
-2 -30 -40z"/>
<path d="M3670 2100 c0 -27 3 -30 30 -30 27 0 30 3 30 30 0 27 -3 30 -30 30
-27 0 -30 -3 -30 -30z"/>
<path d="M3870 2100 c0 -27 3 -30 30 -30 27 0 30 3 30 30 0 27 -3 30 -30 30
-27 0 -30 -3 -30 -30z"/>
<path d="M4270 2100 c0 -27 3 -30 30 -30 27 0 30 3 30 30 0 27 -3 30 -30 30
-27 0 -30 -3 -30 -30z"/>
<path d="M4870 2100 c0 -27 3 -30 30 -30 27 0 30 3 30 30 0 27 -3 30 -30 30
-27 0 -30 -3 -30 -30z"/>
<path d="M5070 2100 c0 -27 3 -30 30 -30 27 0 30 3 30 30 0 27 -3 30 -30 30
-27 0 -30 -3 -30 -30z"/>
<path d="M5270 2100 c0 -27 3 -30 30 -30 27 0 30 3 30 30 0 27 -3 30 -30 30
-27 0 -30 -3 -30 -30z"/>
<path d="M5470 2100 c0 -27 3 -30 30 -30 27 0 30 3 30 30 0 27 -3 30 -30 30
-27 0 -30 -3 -30 -30z"/>
<path d="M5670 2100 c0 -27 3 -30 30 -30 27 0 30 3 30 30 0 27 -3 30 -30 30
-27 0 -30 -3 -30 -30z"/>
<path d="M4800 1895 c0 -45 0 -45 35 -45 l36 0 -2 45 c-3 44 -4 45 -36 45 -32
0 -33 -1 -33 -45z"/>
<path d="M4930 1895 c0 -45 0 -45 35 -45 35 0 35 0 35 45 0 45 0 45 -35 45
-35 0 -35 0 -35 -45z"/>
<path d="M4270 1890 c0 -38 2 -40 30 -40 28 0 30 2 30 40 0 38 -2 40 -30 40
-28 0 -30 -2 -30 -40z"/>
<path d="M400 1090 l0 -710 700 0 700 0 0 710 0 710 -700 0 -700 0 0 -710z
m1200 10 l0 -500 -500 0 -500 0 0 500 0 500 500 0 500 0 0 -500z"/>
<path d="M800 1100 l0 -300 300 0 300 0 0 300 0 300 -300 0 -300 0 0 -300z"/>
<path d="M5600 1700 l0 -100 100 0 100 0 0 100 0 100 -100 0 -100 0 0 -100z"/>
<path d="M6400 700 l0 -100 100 0 100 0 0 -105 0 -105 100 0 100 0 0 105 0
105 -100 0 -100 0 0 100 0 100 -100 0 -100 0 0 -100z"/>
</g>
</svg>
